{
	"accessors" : 
	[
		{
			"bufferView" : 2,
			"byteOffset" : 0,
			"componentType" : 5126,
			"count" : 9792,
			"max" : 
			[
				1,
				1,
				1,
				1
			],
			"min" : 
			[
				1,
				1,
				1,
				1
			],
			"name" : "accessor_color_m0-PolyPaper21_-115966",
			"type" : "VEC4"
		},
		{
			"bufferView" : 2,
			"byteOffset" : 156672,
			"componentType" : 5126,
			"count" : 408,
			"max" : 
			[
				0.6800203323364258,
				0.6800203323364258,
				0.6800203323364258,
				0.2509804
			],
			"min" : 
			[
				0.6800203323364258,
				0.6800203323364258,
				0.6800203323364258,
				0.2509804
			],
			"name" : "accessor_color_m1-PolyGlass24_-129102",
			"type" : "VEC4"
		},
		{
			"bufferView" : 2,
			"byteOffset" : 163200,
			"componentType" : 5126,
			"count" : 9544,
			"max" : 
			[
				1,
				1,
				1,
				1
			],
			"min" : 
			[
				0.006584956776350737,
				0.006584956776350737,
				0.006584956776350737,
				1
			],
			"name" : "accessor_color_m2-PolyPaper21_-129164",
			"type" : "VEC4"
		},
		{
			"bufferView" : 2,
			"byteOffset" : 315904,
			"componentType" : 5126,
			"count" : 9792,
			"max" : 
			[
				1,
				1,
				1,
				1
			],
			"min" : 
			[
				1,
				1,
				1,
				1
			],
			"name" : "accessor_color_m3-PolyPaper21_-115968",
			"type" : "VEC4"
		},
		{
			"bufferView" : 2,
			"byteOffset" : 472576,
			"componentType" : 5126,
			"count" : 1782,
			"max" : 
			[
				0.3488648533821106,
				0.3488648533821106,
				0.3488648533821106,
				1
			],
			"min" : 
			[
				0.3488648533821106,
				0.3488648533821106,
				0.3488648533821106,
				1
			],
			"name" : "accessor_color_m4-PolyPaper22_-129166",
			"type" : "VEC4"
		},
		{
			"bufferView" : 2,
			"byteOffset" : 501088,
			"componentType" : 5126,
			"count" : 9792,
			"max" : 
			[
				1,
				1,
				1,
				1
			],
			"min" : 
			[
				1,
				1,
				1,
				1
			],
			"name" : "accessor_color_m5-PolyPaper21_-115008",
			"type" : "VEC4"
		},
		{
			"bufferView" : 2,
			"byteOffset" : 657760,
			"componentType" : 5126,
			"count" : 9792,
			"max" : 
			[
				1,
				1,
				1,
				1
			],
			"min" : 
			[
				1,
				1,
				1,
				1
			],
			"name" : "accessor_color_m6-PolyPaper21_-116948",
			"type" : "VEC4"
		},
		{
			"bufferView" : 0,
			"byteOffset" : 0,
			"componentType" : 5123,
			"count" : 13824,
			"max" : 
			[
				9791
			],
			"min" : 
			[
				0
			],
			"name" : "accessor_indices_0_m0-PolyPaper21_-115966",
			"type" : "SCALAR"
		},
		{
			"bufferView" : 0,
			"byteOffset" : 27648,
			"componentType" : 5123,
			"count" : 576,
			"max" : 
			[
				407
			],
			"min" : 
			[
				0
			],
			"name" : "accessor_indices_0_m1-PolyGlass24_-129102",
			"type" : "SCALAR"
		},
		{
			"bufferView" : 0,
			"byteOffset" : 28800,
			"componentType" : 5123,
			"count" : 13968,
			"max" : 
			[
				9543
			],
			"min" : 
			[
				0
			],
			"name" : "accessor_indices_0_m2-PolyPaper21_-129164",
			"type" : "SCALAR"
		},
		{
			"bufferView" : 0,
			"byteOffset" : 56736,
			"componentType" : 5123,
			"count" : 13824,
			"max" : 
			[
				9791
			],
			"min" : 
			[
				0
			],
			"name" : "accessor_indices_0_m3-PolyPaper21_-115968",
			"type" : "SCALAR"
		},
		{
			"bufferView" : 0,
			"byteOffset" : 84384,
			"componentType" : 5123,
			"count" : 2718,
			"max" : 
			[
				1781
			],
			"min" : 
			[
				0
			],
			"name" : "accessor_indices_0_m4-PolyPaper22_-129166",
			"type" : "SCALAR"
		},
		{
			"bufferView" : 0,
			"byteOffset" : 89820,
			"componentType" : 5123,
			"count" : 13824,
			"max" : 
			[
				9791
			],
			"min" : 
			[
				0
			],
			"name" : "accessor_indices_0_m5-PolyPaper21_-115008",
			"type" : "SCALAR"
		},
		{
			"bufferView" : 0,
			"byteOffset" : 117468,
			"componentType" : 5123,
			"count" : 13824,
			"max" : 
			[
				9791
			],
			"min" : 
			[
				0
			],
			"name" : "accessor_indices_0_m6-PolyPaper21_-116948",
			"type" : "SCALAR"
		},
		{
			"bufferView" : 1,
			"byteOffset" : 117504,
			"componentType" : 5126,
			"count" : 9792,
			"max" : 
			[
				0.9995878,
				0.9999315,
				0.9971854999999999
			],
			"min" : 
			[
				-0.9995878,
				-0.9999315,
				-0.9971865
			],
			"name" : "accessor_normal_m0-PolyPaper21_-115966",
			"type" : "VEC3"
		},
		{
			"bufferView" : 1,
			"byteOffset" : 239904,
			"componentType" : 5126,
			"count" : 408,
			"max" : 
			[
				0.966018,
				0.9981156,
				0.9719253
			],
			"min" : 
			[
				-0.9660181,
				-0.9981158,
				-0.9719252
			],
			"name" : "accessor_normal_m1-PolyGlass24_-129102",
			"type" : "VEC3"
		},
		{
			"bufferView" : 1,
			"byteOffset" : 359328,
			"componentType" : 5126,
			"count" : 9544,
			"max" : 
			[
				0.999169,
				0.9996672,
				0.997993
			],
			"min" : 
			[
				-0.9991691,
				-0.9996673,
				-0.9979936
			],
			"name" : "accessor_normal_m2-PolyPaper21_-129164",
			"type" : "VEC3"
		},
		{
			"bufferView" : 1,
			"byteOffset" : 591360,
			"componentType" : 5126,
			"count" : 9792,
			"max" : 
			[
				0.999381,
				0.9998977999999999,
				0.9985706
			],
			"min" : 
			[
				-0.9993809,
				-0.9998977,
				-0.9985706
			],
			"name" : "accessor_normal_m3-PolyPaper21_-115968",
			"type" : "VEC3"
		},
		{
			"bufferView" : 1,
			"byteOffset" : 730248,
			"componentType" : 5126,
			"count" : 1782,
			"max" : 
			[
				0.9703713,
				0.9964613,
				0.8807272
			],
			"min" : 
			[
				-0.9987888,
				-0.9975809,
				-0.8496452
			],
			"name" : "accessor_normal_m4-PolyPaper22_-129166",
			"type" : "VEC3"
		},
		{
			"bufferView" : 1,
			"byteOffset" : 869136,
			"componentType" : 5126,
			"count" : 9792,
			"max" : 
			[
				0.9992431000000001,
				0.9993488,
				0.9997846
			],
			"min" : 
			[
				-0.9992422,
				-0.9993494000000001,
				-0.9997846
			],
			"name" : "accessor_normal_m5-PolyPaper21_-115008",
			"type" : "VEC3"
		},
		{
			"bufferView" : 1,
			"byteOffset" : 1104144,
			"componentType" : 5126,
			"count" : 9792,
			"max" : 
			[
				0.9996718999999999,
				0.9999172,
				0.9995251000000001
			],
			"min" : 
			[
				-0.9996718999999999,
				-0.9999172,
				-0.9995251000000001
			],
			"name" : "accessor_normal_m6-PolyPaper21_-116948",
			"type" : "VEC3"
		},
		{
			"bufferView" : 1,
			"byteOffset" : 0,
			"componentType" : 5126,
			"count" : 9792,
			"max" : 
			[
				4.381401,
				0.4431022,
				0.3643046
			],
			"min" : 
			[
				0.6696401,
				-3.616943,
				-3.515014
			],
			"name" : "accessor_position_m0-PolyPaper21_-115966",
			"type" : "VEC3"
		},
		{
			"bufferView" : 1,
			"byteOffset" : 235008,
			"componentType" : 5126,
			"count" : 408,
			"max" : 
			[
				0.2980229,
				-0.08335539,
				0.3721302
			],
			"min" : 
			[
				-0.131134,
				-0.510225,
				-0.05282459
			],
			"name" : "accessor_position_m1-PolyGlass24_-129102",
			"type" : "VEC3"
		},
		{
			"bufferView" : 1,
			"byteOffset" : 244800,
			"componentType" : 5126,
			"count" : 9544,
			"max" : 
			[
				0.6705854,
				0.9118134,
				4.571736
			],
			"min" : 
			[
				-3.979227,
				-2.348873,
				-4.639982
			],
			"name" : "accessor_position_m2-PolyPaper21_-129164",
			"type" : "VEC3"
		},
		{
			"bufferView" : 1,
			"byteOffset" : 473856,
			"componentType" : 5126,
			"count" : 9792,
			"max" : 
			[
				4.833281,
				4.801189,
				1.570067
			],
			"min" : 
			[
				-0.03169007,
				-1.112993,
				-4.900164
			],
			"name" : "accessor_position_m3-PolyPaper21_-115968",
			"type" : "VEC3"
		},
		{
			"bufferView" : 1,
			"byteOffset" : 708864,
			"componentType" : 5126,
			"count" : 1782,
			"max" : 
			[
				-0.8913516,
				0.393166,
				3.905817
			],
			"min" : 
			[
				-3.229525,
				-0.2348083,
				1.09849
			],
			"name" : "accessor_position_m4-PolyPaper22_-129166",
			"type" : "VEC3"
		},
		{
			"bufferView" : 1,
			"byteOffset" : 751632,
			"componentType" : 5126,
			"count" : 9792,
			"max" : 
			[
				3.889048,
				4.451332,
				3.691854
			],
			"min" : 
			[
				-0.8507702,
				-2.283685,
				-4.113933
			],
			"name" : "accessor_position_m5-PolyPaper21_-115008",
			"type" : "VEC3"
		},
		{
			"bufferView" : 1,
			"byteOffset" : 986640,
			"componentType" : 5126,
			"count" : 9792,
			"max" : 
			[
				4.388973,
				4.631186,
				-1.24636
			],
			"min" : 
			[
				-1.990274,
				-1.376311,
				-4.92099
			],
			"name" : "accessor_position_m6-PolyPaper21_-116948",
			"type" : "VEC3"
		}
	],
	"asset" : 
	{
		"copyright" : "Unknown",
		"generator" : "glTF 1-to-2 Upgrader for Google Blocks",
		"version" : "2.0"
	},
	"bufferViews" : 
	[
		{
			"buffer" : 0,
			"byteLength" : 145116,
			"byteOffset" : 0,
			"name" : "ushortBufferView",
			"target" : 34963
		},
		{
			"buffer" : 0,
			"byteLength" : 1221648,
			"byteOffset" : 145116,
			"byteStride" : 12,
			"name" : "vec3BufferView",
			"target" : 34962
		},
		{
			"buffer" : 0,
			"byteLength" : 814432,
			"byteOffset" : 1366764,
			"byteStride" : 16,
			"name" : "vec4BufferView",
			"target" : 34962
		}
	],
	"buffers" : 
	[
		{
			"byteLength" : 2181196,
			"name" : "model",
			"uri" : "model.bin"
		}
	],
	"materials" : 
	[
		{
			"alphaMode" : "OPAQUE",
			"doubleSided" : false,
			"name" : "BlocksPaper",
			"pbrMetallicRoughness" : 
			{
				"baseColorFactor" : 
				[
					1,
					1,
					1,
					1
				],
				"metallicFactor" : 0,
				"roughnessFactor" : 0.6
			}
		},
		{
			"alphaMode" : "BLEND",
			"doubleSided" : false,
			"name" : "BlocksGlass",
			"pbrMetallicRoughness" : 
			{
				"baseColorFactor" : 
				[
					0.2,
					0.2,
					1,
					0.3
				],
				"metallicFactor" : 1,
				"roughnessFactor" : 0.4
			}
		},
		{
			"alphaMode" : "OPAQUE",
			"doubleSided" : true,
			"name" : "BlocksGem",
			"pbrMetallicRoughness" : 
			{
				"baseColorFactor" : 
				[
					1,
					0.4,
					1,
					1
				],
				"metallicFactor" : 0,
				"roughnessFactor" : 0.1
			}
		}
	],
	"meshes" : 
	[
		{
			"name" : "mesh_m0-PolyPaper21_-115966",
			"primitives" : 
			[
				{
					"attributes" : 
					{
						"COLOR_0" : 0,
						"NORMAL" : 14,
						"POSITION" : 21
					},
					"indices" : 7,
					"material" : 0,
					"mode" : 4
				}
			]
		},
		{
			"name" : "mesh_m1-PolyGlass24_-129102",
			"primitives" : 
			[
				{
					"attributes" : 
					{
						"COLOR_0" : 1,
						"NORMAL" : 15,
						"POSITION" : 22
					},
					"indices" : 8,
					"material" : 1,
					"mode" : 4
				}
			]
		},
		{
			"name" : "mesh_m2-PolyPaper21_-129164",
			"primitives" : 
			[
				{
					"attributes" : 
					{
						"COLOR_0" : 2,
						"NORMAL" : 16,
						"POSITION" : 23
					},
					"indices" : 9,
					"material" : 0,
					"mode" : 4
				}
			]
		},
		{
			"name" : "mesh_m3-PolyPaper21_-115968",
			"primitives" : 
			[
				{
					"attributes" : 
					{
						"COLOR_0" : 3,
						"NORMAL" : 17,
						"POSITION" : 24
					},
					"indices" : 10,
					"material" : 0,
					"mode" : 4
				}
			]
		},
		{
			"name" : "mesh_m4-PolyPaper22_-129166",
			"primitives" : 
			[
				{
					"attributes" : 
					{
						"COLOR_0" : 4,
						"NORMAL" : 18,
						"POSITION" : 25
					},
					"indices" : 11,
					"material" : 0,
					"mode" : 4
				}
			]
		},
		{
			"name" : "mesh_m5-PolyPaper21_-115008",
			"primitives" : 
			[
				{
					"attributes" : 
					{
						"COLOR_0" : 5,
						"NORMAL" : 19,
						"POSITION" : 26
					},
					"indices" : 12,
					"material" : 0,
					"mode" : 4
				}
			]
		},
		{
			"name" : "mesh_m6-PolyPaper21_-116948",
			"primitives" : 
			[
				{
					"attributes" : 
					{
						"COLOR_0" : 6,
						"NORMAL" : 20,
						"POSITION" : 27
					},
					"indices" : 13,
					"material" : 0,
					"mode" : 4
				}
			]
		}
	],
	"nodes" : 
	[
		{
			"matrix" : 
			[
				1,
				0,
				0,
				0,
				0,
				1,
				0,
				0,
				0,
				0,
				1,
				0,
				0,
				0,
				0,
				1
			],
			"mesh" : 2,
			"name" : "node_MeshObject-1049587904-PolyPaper21"
		},
		{
			"matrix" : 
			[
				1,
				0,
				0,
				0,
				0,
				1,
				0,
				0,
				0,
				0,
				1,
				0,
				0,
				0,
				0,
				1
			],
			"mesh" : 1,
			"name" : "node_MeshObject-1568307968-PolyGlass24"
		},
		{
			"matrix" : 
			[
				1,
				0,
				0,
				0,
				0,
				1,
				0,
				0,
				0,
				0,
				1,
				0,
				0,
				0,
				0,
				1
			],
			"mesh" : 3,
			"name" : "node_MeshObject-1962639488-PolyPaper21"
		},
		{
			"matrix" : 
			[
				1,
				0,
				0,
				0,
				0,
				1,
				0,
				0,
				0,
				0,
				1,
				0,
				0,
				0,
				0,
				1
			],
			"mesh" : 0,
			"name" : "node_MeshObject-779992576-PolyPaper21"
		},
		{
			"matrix" : 
			[
				1,
				0,
				0,
				0,
				0,
				1,
				0,
				0,
				0,
				0,
				1,
				0,
				0,
				0,
				0,
				1
			],
			"mesh" : 4,
			"name" : "node_MeshObject1128913792-PolyPaper22"
		},
		{
			"matrix" : 
			[
				1,
				0,
				0,
				0,
				0,
				1,
				0,
				0,
				0,
				0,
				1,
				0,
				0,
				0,
				0,
				1
			],
			"mesh" : 5,
			"name" : "node_MeshObject308106944-PolyPaper21"
		},
		{
			"matrix" : 
			[
				1,
				0,
				0,
				0,
				0,
				1,
				0,
				0,
				0,
				0,
				1,
				0,
				0,
				0,
				0,
				1
			],
			"mesh" : 6,
			"name" : "node_MeshObject988151808-PolyPaper21"
		}
	],
	"scene" : 0,
	"scenes" : 
	[
		{
			"extras" : {},
			"name" : "defaultScene",
			"nodes" : 
			[
				3,
				1,
				0,
				2,
				4,
				5,
				6
			]
		}
	]
}